<svg width="44" height="42" viewBox="0 0 44 42" fill="none" xmlns="http://www.w3.org/2000/svg">
<path d="M22 3.78525C27.874 3.78525 28.5707 3.80625 30.8917 3.90775C36.8537 4.16675 39.6385 6.867 39.9098 12.516C40.0162 14.7297 40.0363 15.3948 40.0363 21.0018C40.0363 26.6105 40.0143 27.2738 39.9098 29.4875C39.6367 35.1313 36.8592 37.8367 30.8917 38.0957C28.5707 38.1972 27.8777 38.2183 22 38.2183C16.126 38.2183 15.4293 38.1972 13.1102 38.0957C7.1335 37.835 4.36333 35.1225 4.092 29.4858C3.98567 27.272 3.96367 26.6087 3.96367 21C3.96367 15.393 3.9875 14.7298 4.092 12.5143C4.36517 6.867 7.14267 4.165 13.1102 3.906C15.4312 3.80625 16.126 3.78525 22 3.78525ZM22 0C16.0252 0 15.2772 0.0245 12.9305 0.126C4.94083 0.476 0.5005 4.7075 0.133833 12.341C0.0256667 14.5828 0 15.2967 0 21C0 26.7033 0.0256667 27.419 0.132 29.659C0.498667 37.2855 4.93167 41.524 12.9287 41.874C15.2772 41.9755 16.0252 42 22 42C27.9748 42 28.7247 41.9755 31.0713 41.874C39.0537 41.524 43.505 37.2925 43.8662 29.659C43.9743 27.419 44 26.7033 44 21C44 15.2967 43.9743 14.5827 43.868 12.3427C43.5087 4.72325 39.0702 0.47775 31.0732 0.12775C28.7247 0.0245 27.9748 0 22 0ZM22 10.2165C15.7612 10.2165 10.703 15.0447 10.703 21C10.703 26.9553 15.7612 31.7853 22 31.7853C28.2388 31.7853 33.297 26.957 33.297 21C33.297 15.0447 28.2388 10.2165 22 10.2165ZM22 28C17.9502 28 14.6667 24.8675 14.6667 21C14.6667 17.1342 17.9502 14 22 14C26.0498 14 29.3333 17.1342 29.3333 21C29.3333 24.8675 26.0498 28 22 28ZM33.7443 7.27125C32.285 7.27125 31.1025 8.4 31.1025 9.79125C31.1025 11.1825 32.285 12.3112 33.7443 12.3112C35.2018 12.3112 36.3825 11.1825 36.3825 9.79125C36.3825 8.4 35.2018 7.27125 33.7443 7.27125Z" fill="black" fill-opacity="0.45"/>
</svg>
